<svg width="18" height="18" viewBox="0 0 18 18" fill="none" xmlns="http://www.w3.org/2000/svg">
<g id="clarity:clock-line" clip-path="url(#clip0_525_2083)">
<g id="Group 26086175">
<path id="Vector 137 (Stroke)" fill-rule="evenodd" clip-rule="evenodd" d="M8.53448 3.5C8.82966 3.5 9.06895 3.75915 9.06895 4.07884V10.0633L10.7862 11.4581C11.0223 11.6499 11.0702 12.0127 10.8931 12.2684C10.716 12.5242 10.381 12.576 10.1448 12.3842L8.40153 10.9682C8.14876 10.7629 8 10.4407 8 10.0985V4.07884C8 3.75915 8.23929 3.5 8.53448 3.5Z" fill="black"/>
<path id="Ellipse 61 (Stroke)" fill-rule="evenodd" clip-rule="evenodd" d="M9 2.56667C5.17083 2.56667 2.06667 5.67083 2.06667 9.5C2.06667 13.3292 5.17083 16.4333 9 16.4333C12.8292 16.4333 15.9333 13.3292 15.9333 9.5C15.9333 5.67083 12.8292 2.56667 9 2.56667ZM1 9.5C1 5.08172 4.58172 1.5 9 1.5C13.4183 1.5 17 5.08172 17 9.5C17 13.9183 13.4183 17.5 9 17.5C4.58172 17.5 1 13.9183 1 9.5Z" fill="black"/>
</g>
</g>
<defs>
<clipPath id="clip0_525_2083">
<rect width="18" height="18" fill="white"/>
</clipPath>
</defs>
</svg>
