<svg width="165" height="32" viewBox="0 0 165 32" fill="none" xmlns="http://www.w3.org/2000/svg">
<g id="D | &#215;&#151;&#215;&#145;&#215;&#153;&#215;&#156;&#215;&#149;&#215;&#170; &#215;&#170;&#215;&#149;&#215;&#155;&#215;&#159;/Logo">
<path id="Vector" d="M98.1946 19.2683C98.5664 16.1144 100.904 14.5174 103.392 14.5174C105.88 14.5174 108.106 16.0769 108.181 19.2683H98.1946ZM103.577 10.7295C98.5637 10.7295 93.7031 14.183 93.7031 20.7904C93.7031 27.3978 98.7135 31.0359 103.876 31.0359C106.661 31.0359 109.253 29.9872 111.246 28.0077L108.812 25.1909C107.48 26.5498 105.714 27.1383 103.949 27.1383C101.314 27.1383 98.9382 25.8008 98.3069 22.7967H112.303C112.453 21.831 112.453 21.0525 112.453 20.9776C112.453 13.8486 108.33 10.7322 103.579 10.7322" fill="black"/>
<path id="Vector_2" d="M14.3544 15.4671H9.86294V7.79772H14.4293C17.2515 7.79772 18.6238 9.61676 18.6238 11.5455C18.6238 13.4742 17.214 15.4644 14.3544 15.4644M15.0231 3.74768H5.44642V15.4671H0V19.774H5.44642V30.6293H9.86294V19.774H14.8386C20.186 19.774 23.1179 15.5955 23.1179 11.5856C23.1179 7.57569 20.408 3.75303 15.0258 3.75303" fill="black"/>
<path id="Vector_3" d="M119.263 13.5895V11.0642H115.068V30.6296H119.335V19.8251C119.335 16.4465 121.157 15.1491 123.345 15.1491C124.089 15.1491 124.942 15.2989 125.795 15.6306L126.464 11.214C125.758 10.992 124.942 10.9171 124.273 10.9171C122.379 10.9171 120.376 11.5859 119.26 13.5895" fill="black"/>
<path id="Vector_4" d="M84.2745 10.7323C81.6744 10.7323 79.4487 11.8826 78.0737 14.0735V11.0667H73.9167V22.2779C73.9167 25.1723 72.9136 27.1411 70.2786 27.1411C67.4939 27.1411 66.3811 24.9503 66.3811 22.3528L66.3436 15.0392H70.5756V11.0667H66.3811V0H62.0742V23.0189C62.0742 27.8821 65.2281 31.0387 69.9442 31.0387C72.0602 31.0387 74.2859 30.4074 75.9203 28.7729C78.1112 26.5446 78.1861 23.6127 78.1861 21.4219C78.1861 19.0464 78.5927 14.8145 82.8995 14.8145C85.4596 14.8145 86.9817 16.3366 86.9817 19.2684V30.6294H91.2511V17.8587C91.2511 13.0703 87.9474 10.7323 84.2719 10.7323" fill="black"/>
<path id="Vector_5" d="M32.9876 27.1383C30.0905 27.1383 27.3058 25.0972 27.3058 20.8278C27.3058 16.5584 30.1627 14.5174 33.0598 14.5174C35.9569 14.5174 38.9262 16.5584 38.9262 20.7904C38.9262 25.0223 35.9195 27.1383 32.9876 27.1383ZM44.6428 27.2132C43.8644 27.2132 43.1582 26.7691 43.1582 25.4316V11.0639H39.0011V13.4768C37.479 11.4732 35.0287 10.7295 32.803 10.7295C28.0147 10.7295 23.0391 14.0706 23.0391 20.9375C23.0391 27.8044 27.6428 31.0359 32.3188 31.0359C35.0287 31.0359 37.7011 29.8856 39.5201 27.8071C40.2263 30.0354 42.0079 31.0359 43.8644 31.0359C44.9398 31.0359 46.0927 30.7015 47.0183 30.0702L46.0526 26.8788C45.6433 27.0634 45.1243 27.2132 44.6428 27.2132Z" fill="black"/>
<path id="Vector_6" d="M52.9386 13.5894V11.0641H48.7441V30.6295H53.0135V19.8249C53.0135 16.4463 54.8326 15.1489 57.0234 15.1489C57.7671 15.1489 58.6205 15.2987 59.4738 15.6304L60.1426 11.2139C59.4363 10.9919 58.6205 10.917 57.9544 10.917C56.0604 10.917 54.0541 11.5858 52.9386 13.5894Z" fill="black"/>
<path id="Vector_7" d="M139.69 17.7755C139.147 17.7755 138.639 17.8344 138.173 17.9521L138.379 14.9025H144.583V11.0879H134.664L133.923 21.4243L136.729 22.6655L136.908 22.4756C137.464 21.8871 138.224 21.5634 139.045 21.5634C140.535 21.5634 141.426 22.5452 141.426 24.1903C141.426 26.2956 139.867 27.6037 137.36 27.6037C136.186 27.6037 135.006 27.3121 134.035 26.7825L133.524 26.5043L133.254 30.6292L133.495 30.7362C134.688 31.2659 135.953 31.5253 137.36 31.5253C142.239 31.5253 145.647 28.3875 145.647 23.8934C145.647 20.2339 143.251 17.7755 139.687 17.7755" fill="black"/>
<path id="Vector_8" d="M158.102 19.8864V23.701H160.911V27.0208C160.007 27.3659 158.996 27.5478 157.968 27.5478C153.948 27.5478 151.548 25.1482 151.548 21.1303C151.548 17.1124 154.068 14.6299 158.129 14.6299C160.48 14.6299 162.583 15.4538 163.899 16.893L164.544 17.5992V12.538L164.378 12.4257C162.692 11.2888 160.617 10.7109 158.209 10.7109C151.669 10.7109 147.273 14.9964 147.273 21.3764C147.273 27.7564 151.377 31.4721 157.728 31.4721C160.445 31.4721 162.906 30.7364 164.843 29.3454L165.001 29.233V19.8891H158.105L158.102 19.8864Z" fill="black"/>
</g>
</svg>
