<svg width="17" height="16" viewBox="0 0 17 16" fill="none" xmlns="http://www.w3.org/2000/svg">
<path id="Vector" d="M15.3571 14.9231V7.42308M1.64286 7.42308V14.9231M0.5 15.5H16.5M9.64286 15.5V10.0192C9.64286 9.78972 9.73316 9.5696 9.89391 9.40731C10.0547 9.24502 10.2727 9.15385 10.5 9.15385H12.7857C13.013 9.15385 13.2311 9.24502 13.3918 9.40731C13.5526 9.5696 13.6429 9.78972 13.6429 10.0192V15.5M13.0168 0.5H3.98321C3.205 0.5 2.50214 0.932692 2.2 1.59832L0.653571 5.00721C0.132857 6.15421 0.9975 7.45373 2.33893 7.49519H2.41036C3.53179 7.49519 4.44071 6.58726 4.44071 5.6119C4.44071 6.58546 5.35 7.49519 6.47143 7.49519C7.59286 7.49519 8.5 6.65216 8.5 5.6119C8.5 6.58546 9.40893 7.49519 10.5304 7.49519C11.6518 7.49519 12.5611 6.65216 12.5611 5.6119C12.5611 6.65216 13.47 7.49519 14.5914 7.49519H14.6611C16.0025 7.453 16.8671 6.15349 16.3464 5.00721L14.8 1.59832C14.4979 0.932692 13.795 0.5 13.0168 0.5ZM4.21429 9.15385H7.07143C7.29876 9.15385 7.51678 9.24502 7.67752 9.40731C7.83827 9.5696 7.92857 9.78972 7.92857 10.0192V13.1923H3.35714V10.0192C3.35714 9.78972 3.44745 9.5696 3.60819 9.40731C3.76894 9.24502 3.98696 9.15385 4.21429 9.15385Z" stroke="black" stroke-linecap="round" stroke-linejoin="round"/>
</svg>
