<svg width="19" height="20" viewBox="0 0 19 20" fill="none" xmlns="http://www.w3.org/2000/svg">
<g id="Icon / Personal">
<path id="Vector" d="M9.04107 11.3628C10.8464 11.3628 12.3099 9.8373 12.3099 7.95546C12.3099 6.07363 10.8464 4.5481 9.04107 4.5481C7.23573 4.5481 5.77222 6.07363 5.77222 7.95546C5.77222 9.8373 7.23573 11.3628 9.04107 11.3628Z" stroke="white" stroke-width="0.959695" stroke-linecap="round" stroke-linejoin="round"/>
<path id="Vector_2" d="M3.45752 16.6785C4.041 15.6802 4.86104 14.8551 5.83882 14.2826C6.8166 13.71 7.91923 13.4093 9.04071 13.4093C10.1622 13.4093 11.2648 13.71 12.2426 14.2826C13.2204 14.8551 14.0404 15.6802 14.6239 16.6785" stroke="white" stroke-width="0.959695" stroke-linecap="round" stroke-linejoin="round"/>
<path id="Vector_3" d="M9.04076 18.8592C13.7346 18.8592 17.5398 14.8928 17.5398 10C17.5398 5.10725 13.7346 1.14087 9.04076 1.14087C4.34688 1.14087 0.541748 5.10725 0.541748 10C0.541748 14.8928 4.34688 18.8592 9.04076 18.8592Z" stroke="white" stroke-width="0.959695" stroke-linecap="round" stroke-linejoin="round"/>
</g>
</svg>
