<svg width="56" height="55" viewBox="0 0 56 55" fill="none" xmlns="http://www.w3.org/2000/svg">
<g id="vaadin:accessibility" filter="url(#filter0_d_467_378)">
<rect x="9" y="5" width="38" height="38" rx="19" fill="white"/>
<path id="Vector" d="M31.1283 27.0205H30.4566C30.5909 27.4297 30.5909 27.9754 30.5909 28.3846C30.5909 31.3856 28.1727 33.841 25.2172 33.841C22.2616 33.841 19.8434 31.3856 19.8434 28.3846C19.8434 25.52 21.9929 23.201 24.8141 22.9282L24.5455 21.5641C21.0525 22.1097 18.5 24.8379 18.5 28.3846C18.5 32.2041 21.4556 35.2051 25.2172 35.2051C28.4414 35.2051 31.1283 32.8861 31.8 29.8851L31.1283 27.0205Z" fill="#2E2E2E"/>
<path id="Vector_2" d="M34.9722 31.7949L33.5092 24.4872H28.0562L27.7902 23.0257H32.1792V21.5642H27.5242L26.7262 17.9103C27.9232 17.7642 28.8542 16.7411 28.8542 15.4257C28.8542 13.9642 27.7902 12.7949 26.4602 12.7949C25.1302 12.7949 24.1992 13.9642 24.1992 15.4257C24.1992 16.3026 24.5982 17.1795 25.2632 17.618L26.9922 25.9488H32.4452L34.0412 33.2565H37.4992V31.7949H34.9722Z" fill="#2E2E2E"/>
</g>
<defs>
<filter id="filter0_d_467_378" x="0.68" y="0.0100002" width="54.64" height="54.64" filterUnits="userSpaceOnUse" color-interpolation-filters="sRGB">
<feFlood flood-opacity="0" result="BackgroundImageFix"/>
<feColorMatrix in="SourceAlpha" type="matrix" values="0 0 0 0 0 0 0 0 0 0 0 0 0 0 0 0 0 0 127 0" result="hardAlpha"/>
<feOffset dy="3.33"/>
<feGaussianBlur stdDeviation="4.16"/>
<feComposite in2="hardAlpha" operator="out"/>
<feColorMatrix type="matrix" values="0 0 0 0 0 0 0 0 0 0 0 0 0 0 0 0 0 0 0.2 0"/>
<feBlend mode="normal" in2="BackgroundImageFix" result="effect1_dropShadow_467_378"/>
<feBlend mode="normal" in="SourceGraphic" in2="effect1_dropShadow_467_378" result="shape"/>
</filter>
</defs>
</svg>
